0
SECTION
2
HEADER
9
$INSUNITS
70
4
9
$ACADVER
1
AC1014
9
$HANDSEED
5
FFFF
0
ENDSEC
0
SECTION
2
TABLES
0
TABLE
2
VPORT
5
8
100
AcDbSymbolTable
0
ENDTAB
0
TABLE
2
LTYPE
5
5
100
AcDbSymbolTable
0
LTYPE
5
14
100
AcDbSymbolTableRecord
100
AcDbLinetypeTableRecord
2
BYBLOCK
70
0
0
LTYPE
5
15
100
AcDbSymbolTableRecord
100
AcDbLinetypeTableRecord
2
BYLAYER
70
0
0
ENDTAB
0
TABLE
2
LAYER
5
2
100
AcDbSymbolTable
70
2
0
LAYER
5
50
100
AcDbSymbolTableRecord
100
AcDbLayerTableRecord
2
0
70
0
6
CONTINUOUS
0
ENDTAB
0
TABLE
2
STYLE
5
3
100
AcDbSymbolTable
70
1
0
STYLE
5
11
100
AcDbSymbolTableRecord
100
AcDbTextStyleTableRecord
2
STANDARD
70
0
0
ENDTAB
0
TABLE
2
VIEW
5
6
100
AcDbSymbolTable
70
0
0
ENDTAB
0
TABLE
2
UCS
5
7
100
AcDbSymbolTable
70
0
0
ENDTAB
0
TABLE
2
APPID
5
9
100
AcDbSymbolTable
70
2
0
APPID
5
12
100
AcDbSymbolTableRecord
100
AcDbRegAppTableRecord
2
ACAD
70
0
0
ENDTAB
0
TABLE
2
DIMSTYLE
5
A
100
AcDbSymbolTable
70
1
0
ENDTAB
0
TABLE
2
BLOCK_RECORD
5
1
100
AcDbSymbolTable
70
1
0
BLOCK_RECORD
5
1F
100
AcDbSymbolTableRecord
100
AcDbBlockTableRecord
2
*MODEL_SPACE
0
BLOCK_RECORD
5
1B
100
AcDbSymbolTableRecord
100
AcDbBlockTableRecord
2
*PAPER_SPACE
0
ENDTAB
0
ENDSEC
0
SECTION
2
BLOCKS
0
BLOCK
5
20
100
AcDbEntity
100
AcDbBlockBegin
2
*MODEL_SPACE
0
ENDBLK
5
21
100
AcDbEntity
100
AcDbBlockEnd
0
BLOCK
5
1C
100
AcDbEntity
100
AcDbBlockBegin
2
*PAPER_SPACE
0
ENDBLK
5
1D
100
AcDbEntity
100
AcDbBlockEnd
0
ENDSEC
0
SECTION
2
ENTITIES
0
LWPOLYLINE
5
100
100
AcDbEntity
8
0
100
AcDbPolyline
90
14
70
1
43
0.0
10
-2.9999915523516583
20
8.0000000298023224
10
-2.9999915523516583
20
2.0000000298023224
10
-18.000000268220901
20
2.0000000298023224
10
-27.000000402331349
20
3.0000000447034831
10
-32.000000476837158
20
2.0000000298023224
10
-33.999999240040779
20
3.4999999776482582
10
-35.500000528991222
20
2.0000000298023224
10
-38.000000566244125
20
4.5000000670552254
10
-38.000000566244125
20
5.5000000819563866
10
-35.465021267279852
20
8.0000000298023224
10
-33.980010614604275
20
6.5149904282240385
10
-32.000000476837158
20
8.0000001192092896
10
-27.000000402331352
20
7.0000001043081284
10
-18.000000268220898
20
8.0000000298023224
0
LWPOLYLINE
5
101
100
AcDbEntity
8
0
100
AcDbPolyline
90
16
70
1
43
0.0
10
-5.9999884027194863
20
7.0000001043077837
10
-18.000000268220901
20
7.0000001043081284
10
-26.999999396502972
20
5.1999998837709427
10
-32.000000476837158
20
7.0000001043081284
10
-33.993164065558595
20
5.2985705316723646
10
-35.500000528991222
20
7.0000001043081284
10
-36.999999694526949
20
5.4999998770654202
10
-36.999999694526949
20
4.5000000670552254
10
-35.500000528991222
20
3.0000000447034836
10
-33.993164065558595
20
4.7824115903067286
10
-32.000000476837172
20
3.0000000447034845
10
-27.000000402331356
20
4.8000000603497046
10
-18.000000100582888
20
3.0000000447034836
10
-5.9999915523516592
20
3.000000044703484
10
-5.9999915523516592
20
3.5002046665877113
10
-5.999988643768706
20
6.4998114290667806
0
LWPOLYLINE
5
102
100
AcDbEntity
8
0
100
AcDbPolyline
90
4
70
1
43
0.0
10
-4.6849915523516588
20
5.9999998658895493
10
-4.2849915523516584
20
5.9999998658895493
10
-4.2849915523516584
20
3.9999999105930328
10
-4.6849915523516588
20
3.9999999105930328
0
CIRCLE
5
103
100
AcDbEntity
8
0
100
AcDbCircle
10
-6.5000000968575478
20
7.500000111758709
30
0
40
0.14999999999999997
210
0
220
0
230
1
0
CIRCLE
5
104
100
AcDbEntity
8
0
100
AcDbCircle
10
-6.5000000968575478
20
2.500000037252903
30
0
40
0.1499999999999998
210
0
220
0
230
1
0
CIRCLE
5
105
100
AcDbEntity
8
0
100
AcDbCircle
10
-15.000000223517418
20
7.500000111758709
30
0
40
0.1500000000000003
210
0
220
0
230
1
0
CIRCLE
5
106
100
AcDbEntity
8
0
100
AcDbCircle
10
-15.000000223517418
20
2.500000037252903
30
0
40
0.15000000000000083
210
0
220
0
230
1
0
ENDSEC
0
SECTION
2
OBJECTS
0
DICTIONARY
5
C
100
AcDbDictionary
3
ACAD_GROUP
350
D
3
ACAD_MLINESTYLE
350
17
0
DICTIONARY
5
D
100
AcDbDictionary
0
DICTIONARY
5
1A
330
C
100
AcDbDictionary
0
DICTIONARY
5
17
100
AcDbDictionary
0
ENDSEC
0
EOF
